<?xml version="1.0" encoding="utf-8"?>
<!-- Generator: Adobe Illustrator 16.0.0, SVG Export Plug-In . SVG Version: 6.00 Build 0)  -->
<!DOCTYPE svg PUBLIC "-//W3C//DTD SVG 1.1//EN" "http://www.w3.org/Graphics/SVG/1.1/DTD/svg11.dtd">
<svg version="1.1" id="Layer_1" xmlns="http://www.w3.org/2000/svg" xmlns:xlink="http://www.w3.org/1999/xlink" x="0px" y="0px"
	 width="512px" height="512px" viewBox="0 0 512 512" enable-background="new 0 0 512 512" xml:space="preserve">
<circle cx="224.28" cy="122.335" r="99.792"/>
<path d="M290.18,372.258c0-33.578,27.221-60.801,60.799-60.801h41.115c-14.369-46.129-40.139-84.935-72.908-110.761
	c-22.576,27.31-56.707,44.716-94.906,44.716c-38.198,0-72.333-17.406-94.908-44.716C78.028,241.16,43.821,313.459,43.821,395.931
	c0,0,74.015,26.611,178.796,26.611c24.189,0,46.912-1.42,67.563-3.602V372.258z"/>
<path d="M415.059,323.457h-59.76c-29.336,0-53.119,23.783-53.119,53.121v59.76c0,29.336,23.783,53.119,53.119,53.119h59.76
	c29.338,0,53.121-23.783,53.121-53.119v-59.76C468.18,347.24,444.397,323.457,415.059,323.457z M437.551,401.385
	c-7.654,6.295-15.24,12.668-22.879,18.982c-0.209,0.185-0.426,0.374-0.572,0.615c2.158,9.391,4.576,18.731,6.83,28.104
	c1.713,4.699-2.293,10.242-7.324,9.873c-1.738-0.021-3.252-0.975-4.639-1.92c-7.488-4.729-14.979-9.457-22.469-14.182
	c-0.639-0.391-1.239-0.88-1.959-1.114c-8.492,5.115-16.855,10.46-25.326,15.617c-2.33,1.391-5.424,1.372-7.71-0.097
	c-2.409-1.436-3.896-4.396-3.325-7.189c2.441-10.02,5.187-19.987,7.516-30.026c-6.879-5.921-13.867-11.725-20.779-17.608
	c-1.566-1.268-3.264-2.596-3.942-4.574c-1.66-3.97,0.968-9.146,5.318-9.766c10.355-0.875,20.782-1.244,31.114-2.193
	c3.573-8.539,7.01-17.143,10.54-25.703c0.657-1.707,1.417-3.485,2.916-4.63c3.319-2.841,9.142-1.89,11.026,2.166
	c3.817,9.454,7.566,18.94,11.359,28.407c0.063,0.32,0.365,0.428,0.662,0.428c9.492,0.65,18.977,1.424,28.467,2.1
	c2.725,0.057,5.426,1.557,6.656,4.029C440.555,395.48,440.045,399.334,437.551,401.385z"/>
</svg>
